<?xml version="1.0" encoding="UTF-8"?><svg id="Layer_1" xmlns="http://www.w3.org/2000/svg" viewBox="0 0 508.51 98.21"><defs><style>.cls-1{fill:#14af78;}.cls-2{fill:#10ae76;}.cls-3{fill:#004fc8;}.cls-4{fill:#014fc5;}</style></defs><path class="cls-3" d="M0,94.2h0c0-1.59.74-3.09,2.01-4.06l54.67-41.66c.55-.42,1.32-.38,1.82.09l28.1,26.34c.53.5,1.35.51,1.9.03l40.45-35.69c.54-.48,1.35-.47,1.88.02l5.77,5.27c.29.27.46.64.46,1.04v51.23c0,.78-.63,1.41-1.41,1.41H4.02c-2.22,0-4.02-1.8-4.02-4.02Z"/><polygon class="cls-2" points="74.98 64.03 116.69 25.17 137.05 25.17 86.59 74.91 74.98 64.03"/><path class="cls-3" d="M0,76.23v-28.71c0-.82.41-1.59,1.09-2.05L67.74.42c.85-.57,1.96-.57,2.8.02l35.47,24.57c1.35.94,1.43,2.91.16,3.95l-27.35,22.46c-.91.75-2.23.75-3.14,0l-17.43-14.25c-.91-.74-2.21-.75-3.12-.01L4.03,78.16c-1.62,1.3-4.03.15-4.03-1.93Z"/><path class="cls-1" d="M384.45,75.27v-37.89h10.97v57.83l-9.96-.51-27.43-36.4-1.49,36.91h-10.97v-57.84c3.21.4,7.84-1.04,10.54.93l28.35,36.96Z"/><path class="cls-4" d="M197.99,40.41l-2.03,8.92c-14.22-4.45-31.48-2.55-32.9,15.43-1.67,21.14,17.83,24.12,33.93,18.49.93,8.7,2.34,10.69-7.58,11.86-60.16,7.07-44.65-76.12,8.58-54.69Z"/><path class="cls-1" d="M441.28,78.27h-28.92c-.42,6.22,7.13,9.07,12.31,8.9,2.48-.08,10.75-3.4,11.53-2.84.52.37,2.4,5.92,1.98,7.23-1.42,4.49-18.04,4.1-22.1,3.42-21.93-3.67-20.67-40.68,5.75-40.7,14.3,0,21.18,10.57,19.44,23.98ZM431.31,71.29c-.61-12.2-18.57-11.79-19.94,0h19.94Z"/><path class="cls-4" d="M261.81,78.27h-28.92c2.13,11.95,15.38,9.31,23.92,5.98,3.42,8.06,2.01,9.84-6.58,10.86-12.16,1.45-26.22-1.18-28.22-15.43-4.66-33.24,44.25-34.36,39.8-1.41ZM251.83,71.29c.3-12.29-19.47-11.98-18.94,0h18.94Z"/><path class="cls-4" d="M303.68,95.22c-4.88-.73-11.57,2.66-9.98-3.99-10.08,7.09-28.58,6.37-26.97-9.54,1.21-11.94,18.09-10.6,26.98-11.41-1.1-11.8-14.35-6.6-21.93-4.98.35-3.99-3.79-5.99.27-8.19,7.12-3.86,20.69-4.23,27.15,1.2,1.08.91,4.48,5.64,4.48,6.49v30.41ZM293.72,77.27c-4.3-.66-19.85.33-16.26,7.7,3.57,7.31,18.88,1.27,16.26-7.7Z"/><path class="cls-1" d="M476.15,57.37c.78,1.1-2.07,7.4-3.61,7.86-.81.24-15.42-4.69-16.36-.32-1.29,6,7.87,5.43,12,6.91,14.92,5.34,11.85,21.77-2.47,23.41-3.87.44-19.2-.03-21.37-3.08-.83-1.17,2.04-7.35,3.57-7.8,3.4-.99,14.83,7.72,19.23-.71.92-5.21-19.45-3.41-21.66-13.06-3.09-13.5,10.27-17.63,21.14-16.16,1.18.16,9.24,2.54,9.52,2.95Z"/><path class="cls-1" d="M486.15,64.31c-.55-.55-6.78.87-7-.57.3-1.52-.35-8.04.01-8.41.41-.41,6.58.42,6.99.01s-.3-9.19-.01-10.98h10.98s-.01,10.98-.01,10.98h10.98c1.31,10.61-1.97,9.24-10.98,8.96,1.38,10.55-5.62,25.07,10.98,21.94,2.22,10.54-4.68,10.29-13.23,8.74-2.7-.49-8.71-4.74-8.71-7.24,0-3.26.83-22.6,0-23.43Z"/><rect class="cls-4" x="204.97" y="34.39" width="10.97" height="60.82"/><path class="cls-4" d="M321.63,95.22h-9.98c-.98-13.29-1.62-26.59,0-39.89,1.68.28,9.61-.38,9.98,0,.49.49-.79,4.25.49,4.99,3.56-4.49,8.65-7.53,14.48-5.4l-.03,9.39c-5.66-2.78-14.95,2.08-14.95,8.48v22.43Z"/></svg>