<svg xmlns="http://www.w3.org/2000/svg" version="1.1" xmlns:xlink="http://www.w3.org/1999/xlink" width="1000" height="1000"><g clip-path="url(#SvgjsClipPath1102)"><rect width="1000" height="1000" fill="#ffffff"></rect><g transform="matrix(6.42209199646785,0,0,6.42209199646785,100,211.39118567873487)"><svg xmlns="http://www.w3.org/2000/svg" id="Layer_1" viewBox="0 0 124.57 89.88" width="124.57" height="89.88"><defs><style>.cls-1{fill:#10ae76;}.cls-2{fill:#004fc8;}</style><clipPath id="SvgjsClipPath1102"><rect width="1000" height="1000" x="0" y="0" rx="150" ry="150"></rect></clipPath></defs><path class="cls-2" d="M1.53,86.32h0c0-1.41.66-2.74,1.78-3.6l48.47-36.94c.49-.37,1.17-.34,1.61.08l24.91,23.35c.47.44,1.2.45,1.68.03l35.86-31.64c.48-.42,1.2-.42,1.67.01l5.12,4.67c.26.24.41.57.41.92v45.42c0,.69-.56,1.25-1.25,1.25H5.09c-1.97,0-3.56-1.59-3.56-3.56Z"></path><polygon class="cls-1" points="68.01 59.57 104.99 25.12 123.04 25.12 78.3 69.22 68.01 59.57"></polygon><path class="cls-2" d="M1.53,70.39v-25.46c0-.73.36-1.41.97-1.82L61.59,3.18c.75-.51,1.74-.5,2.48.01l31.44,21.79c1.2.83,1.27,2.58.14,3.5l-24.25,19.92c-.81.66-1.97.67-2.78,0l-15.45-12.63c-.8-.66-1.96-.66-2.77-.01L5.1,72.1c-1.44,1.15-3.57.13-3.57-1.71Z"></path></svg></g></g></svg>